<svg xmlns="http://www.w3.org/2000/svg" width="1200" height="800" viewBox="-101.745 -43.2 881.79 259.2"><path d="M131.9 153.5h38.9v-48.2h11.5l28.1 48.2h45l-34.2-55.6c16.2-8.4 27.5-25.3 27.5-45 0-28.1-22.9-50.8-50.8-50.8h-66v19.7C117.6 8.4 98.8 0 77.8 0 35 0 0 34.6 0 77.8c0 43.2 35 77.9 77.9 77.9 21 0 39.8-8.4 54.1-21.8v19.6zm-26.4-48.2c-7.1 7.1-16.9 11.5-27.7 11.5-21.4 0-38.9-17.5-38.9-38.9S56.4 39 77.8 39c10.8 0 20.5 4.3 27.7 11.5l26.4-26.4v107.6zm65.3-34V36.1H192c9.7 0 17.7 8 17.7 17.7s-8 17.5-17.7 17.5z" fill="#00ae4d"/><path d="M543.1 143.5l-2.9 4c4.4 3.9 10.3 6.5 17.9 6.5 8.9 0 16-4.8 16-13.3 0-6.7-3.3-9.6-13.8-13.2l-4-1.4c-5.9-2-9.1-3.9-9.1-8.3 0-5.4 5-7.5 9.7-7.5 4.4 0 9.2 2.4 12.6 5.4l3.1-4.2c-4.4-3.6-9.3-5.7-15.7-5.7-8.1 0-14.7 4.3-14.7 12.3 0 6.1 3.7 10 12.6 13.1l4.5 1.6c6.7 2.4 9.8 3.7 9.8 7.9 0 6.1-5.3 8.8-11 8.8-5.9 0-11.2-2.5-15-6m-6 7.4l-1.4-4.1c-2.8 1.7-5.5 2.5-8.8 2.5-4.6 0-6.8-2.8-6.8-7.8V111h16.6v-4.8h-16.6V89.8h-5.2v51.7c0 7.8 3.9 12.5 11.7 12.5 3.9 0 7.3-1.1 10.5-3.1m-46.3 2.6v-27.9c1.1-10.5 9.9-15.6 18.8-14.4v-5.3c-7.9-1.2-15.2 2.8-18.8 9.7l-.1-9.4h-5v47.4h5.1zm-35.2-47.8c-13.3 0-24.1 10.9-24.1 24.2 0 13.3 10.8 24.2 24.1 24.2s24.2-10.9 24.2-24.2c0-13.4-10.8-24.2-24.2-24.2zm0 43.2c-10.5 0-19-8.6-19-19.1 0-10.5 8.5-19.1 19-19.1 10.6 0 19.1 8.6 19.1 19.1 0 10.5-8.5 19.1-19.1 19.1zm-52.7-43.2c-7.9 0-14.8 4.3-18.8 11v-10.5H379v66.6h5.1V143c4 6.7 11.1 11.1 19.1 11.1 12.9 0 23.6-10.9 23.6-24.2 0-13.4-10.8-24.2-23.9-24.2zm0 43.2c-10.4 0-18.8-8.6-18.8-19.1 0-10.5 8.4-19.1 18.8-19.1s18.8 8.6 18.8 19.1c0 10.5-8.4 19.1-18.8 19.1zm-29.7-21.1c0-13.2-9.7-22.1-21.7-22.1-12.3 0-22.7 9.8-22.7 24 0 14 10.9 24.4 23.6 24.4 7.6 0 14.1-3.2 18.7-9l-3.7-3.1c-3.5 4.7-8.7 7.2-15 7.2-9.8 0-17.7-7.6-18.4-18.1h39.2zm-39.1-1.4c1.4-9.6 8.6-16 17.3-16 8.7 0 15.9 6.4 16.5 16zm-24.7-1.6c11.6-1.8 18.5-10.2 18.5-20 0-11.7-8-20.3-22.6-20.3h-23.1v69.1h5.4v-28.4H303l19.5 28.4h6.6zm-21.8-4.8V89.6h17.6c10.9 0 17.2 6.1 17.2 15.2 0 8.1-5.5 15.2-17.4 15.2zm371.9-48.7V43.4c1.1-10.5 9.9-15.6 18.8-14.4v-5.3c-7.9-1.2-15.2 2.8-18.8 9.7l-.1-9.4h-5v47.4h5.1zm-11-25.7c0-13.2-9.7-22.1-21.7-22.1-12.3 0-22.7 9.8-22.7 24 0 14 10.9 24.4 23.6 24.4 7.6 0 14.1-3.2 18.7-9l-3.7-3.1c-3.5 4.7-8.7 7.2-15 7.2-9.8 0-17.7-7.6-18.4-18.1h39.2zm-39.1-1.4c1.4-9.6 8.6-16 17.3-16 8.7 0 15.9 6.4 16.5 16zm-76.5 3.1c.2-12.5 6.5-19.1 15.3-19.1 7.4 0 12.3 4.7 12.2 13.2v29.9h5.1v-24c.2-12.5 6.5-19.1 15.3-19.1 7.4 0 12.3 4.7 12.2 13.2v29.9h5.1V41.2c.1-11.1-6.1-17.8-16.8-17.8-7.6 0-14 4.5-16.8 11.3-2.1-7-7.8-11.3-15.9-11.3-7 0-13.1 4-15.9 10v-9.5h-5.1v47.4h5.1v-24zm-17.9 24h5.1V24H515v24.1c-.2 12.5-7.1 19.1-16.7 19.1-7.6 0-12.6-4.7-12.6-13.2V24h-5.1v30.1c0 11.1 6.3 17.8 17.2 17.8 7.8 0 14.4-4.2 17.3-10.5v9.9zm-71.3-10l-2.9 4c4.4 3.9 10.3 6.5 17.9 6.5 8.9 0 16-4.8 16-13.3 0-6.7-3.3-9.6-13.8-13.2l-4-1.4c-5.9-2-9.1-3.9-9.1-8.3 0-5.4 5-7.5 9.7-7.5 4.4 0 9.2 2.4 12.6 5.4l3.1-4.2c-4.4-3.6-9.3-5.7-15.7-5.7-8.1 0-14.7 4.3-14.7 12.3 0 6.1 3.7 10 12.6 13.1l4.5 1.6c6.7 2.4 9.8 3.7 9.8 7.9 0 6.1-5.3 8.8-11 8.8-5.9 0-11.2-2.5-15-6m-42.6-14c.2-12.5 7.1-19.1 16.7-19.1 7.6 0 12.6 4.7 12.6 13.2v29.9h5.1V41.2c0-11.1-6.3-17.8-17.2-17.8-7.8 0-14.4 4.2-17.3 10.5v-10h-5.1v47.4h5.1v-24zM366 23.5c-13.3 0-24.1 10.9-24.1 24.2 0 13.3 10.8 24.2 24.1 24.2s24.2-10.9 24.2-24.2c0-13.3-10.9-24.2-24.2-24.2zm0 43.2c-10.5 0-19-8.6-19-19.1 0-10.5 8.5-19.1 19-19.1 10.6 0 19.1 8.6 19.1 19.1 0 10.5-8.5 19.1-19.1 19.1zm-31.9-11.8c-5.4 7-13.9 11.4-23.4 11.4-16.2 0-29.5-13.2-29.5-29.5 0-16.2 13.3-29.4 29.5-29.4 9.6 0 18 4.3 23.4 11.5l4.1-4c-6.5-7.9-16.5-13-27.5-13-19.3 0-35.1 15.8-35.1 35 0 19.3 15.8 35.1 35.1 35.1 11.1 0 20.9-5.1 27.3-13.1zm238.2 38.3h-2.9v-.7h6.5v.7H573v8.5h-.7zm14.1-.7v9.2h-.7v-7.8l-3.4 5.8h-.5l-3.4-5.8v7.8h-.7v-9.2h.7l3.7 6.4 3.7-6.4z"/></svg>